<mxfile host="app.diagrams.net" agent="Mozilla/5.0 (Macintosh; Intel Mac OS X 10_15_7) AppleWebKit/605.1.15 (KHTML, like Gecko) Version/18.1 Safari/605.1.15" version="26.0.16">
  <diagram name="页-1" id="Page-1">
    <mxGraphModel dx="1167" dy="-474" grid="1" gridSize="10" guides="1" tooltips="1" connect="1" arrows="1" fold="1" page="1" pageScale="1" pageWidth="827" pageHeight="1169" math="1" shadow="0">
      <root>
        <mxCell id="0" />
        <mxCell id="1" parent="0" />
        <UserObject label="" tags="连接线" id="QorwKqGtvu0XsbEE5Cfv-155">
          <mxCell style="vsdxID=230;edgeStyle=none;startArrow=none;endArrow=open;startSize=22;endSize=22;strokeWidth=4;strokeColor=#000000;spacingTop=0;spacingBottom=0;spacingLeft=0;spacingRight=0;verticalAlign=middle;html=1;labelBackgroundColor=#ffffff;rounded=0;" edge="1" parent="1">
            <mxGeometry relative="1" as="geometry">
              <Array as="points" />
              <mxPoint x="148" y="2132" as="sourcePoint" />
              <mxPoint x="149" y="1386" as="targetPoint" />
            </mxGeometry>
          </mxCell>
        </UserObject>
        <UserObject label="" tags="连接线" id="QorwKqGtvu0XsbEE5Cfv-156">
          <mxCell style="vsdxID=231;edgeStyle=none;startArrow=none;endArrow=open;startSize=22;endSize=22;strokeWidth=4;strokeColor=#000000;spacingTop=0;spacingBottom=0;spacingLeft=0;spacingRight=0;verticalAlign=middle;html=1;labelBackgroundColor=#FFFFFF;rounded=0;" edge="1" parent="1">
            <mxGeometry relative="1" as="geometry">
              <Array as="points" />
              <mxPoint x="148" y="2132" as="sourcePoint" />
              <mxPoint x="1050" y="2130" as="targetPoint" />
            </mxGeometry>
          </mxCell>
        </UserObject>
        <UserObject label="&lt;div style=&quot;font-size: 1px&quot;&gt;&lt;font style=&quot;font-size:42.33px;font-family:Times New Roman;color:#000000;direction:ltr;letter-spacing:0px;line-height:120%;opacity:1&quot;&gt;&lt;i&gt;Y&lt;br/&gt;&lt;/i&gt;&lt;/font&gt;&lt;/div&gt;" tags="背景" id="QorwKqGtvu0XsbEE5Cfv-157">
          <mxCell style="verticalAlign=middle;align=center;overflow=width;vsdxID=233;fillColor=none;gradientColor=none;shape=stencil(nZBLDoAgDERP0z3SIyjew0SURgSD+Lu9kMZoXLhwN9O+tukAlrNpJg1SzDH4QW/URgNYgZTkjA4UkwJUgGXng+6DX1zLfmoymdXo17xh5zmRJ6Q42BWCfc2oJfdAr+Yv+AP9Cb7OJ3H/2JG1HNGz/84klThPVCc=);strokeColor=none;strokeWidth=2;points=[];labelBackgroundColor=none;rounded=0;html=1;whiteSpace=wrap;" vertex="1" parent="1">
            <mxGeometry x="1019" y="2141" width="34" height="41" as="geometry" />
          </mxCell>
        </UserObject>
        <UserObject label="&lt;div style=&quot;font-size: 1px&quot;&gt;&lt;font style=&quot;font-size:42.33px;font-family:Times New Roman;color:#000000;direction:ltr;letter-spacing:0px;line-height:120%;opacity:1&quot;&gt;&lt;i&gt;O&lt;br/&gt;&lt;/i&gt;&lt;/font&gt;&lt;/div&gt;" tags="背景" id="QorwKqGtvu0XsbEE5Cfv-158">
          <mxCell style="verticalAlign=middle;align=center;overflow=width;vsdxID=234;fillColor=#ffffff;gradientColor=none;shape=stencil(nZBLDoAgDERP0z3SIyjew0SURgSD+Lu9kMZoXLhwN9O+tukAlrNpJg1SzDH4QW/URgNYgZTkjA4UkwJUgGXng+6DX1zLfmoymdXo17xh5zmRJ6Q42BWCfc2oJfdAr+Yv+AP9Cb7OJ3H/2JG1HNGz/84klThPVCc=);strokeColor=none;strokeWidth=2;points=[];labelBackgroundColor=none;rounded=0;html=1;whiteSpace=wrap;" vertex="1" parent="1">
            <mxGeometry x="95" y="2102" width="34" height="41" as="geometry" />
          </mxCell>
        </UserObject>
        <UserObject label="&lt;div style=&quot;font-size: 1px&quot;&gt;&lt;font style=&quot;font-size:33.87px;font-family:Times New Roman;color:#000000;direction:ltr;letter-spacing:0px;line-height:120%;opacity:1&quot;&gt;&lt;i&gt;Follower USV1&lt;br/&gt;&lt;/i&gt;&lt;/font&gt;&lt;/div&gt;" tags="背景" id="QorwKqGtvu0XsbEE5Cfv-159">
          <mxCell style="verticalAlign=middle;align=center;overflow=width;vsdxID=248;fillColor=none;gradientColor=none;shape=stencil(nZBLDoAgDERP0z3SIyjew0SURgSD+Lu9kMZoXLhwN9O+tukAlrNpJg1SzDH4QW/URgNYgZTkjA4UkwJUgGXng+6DX1zLfmoymdXo17xh5zmRJ6Q42BWCfc2oJfdAr+Yv+AP9Cb7OJ3H/2JG1HNGz/84klThPVCc=);strokeColor=none;strokeWidth=2;points=[];labelBackgroundColor=none;rounded=0;html=1;whiteSpace=wrap;" vertex="1" parent="1">
            <mxGeometry x="170" y="1391" width="262" height="44" as="geometry" />
          </mxCell>
        </UserObject>
        <UserObject label="&lt;div style=&quot;font-size: 1px&quot;&gt;&lt;font style=&quot;font-size:33.87px;font-family:Times New Roman;color:#000000;direction:ltr;letter-spacing:0px;line-height:120%;opacity:1&quot;&gt;&lt;i&gt;Follower USV2&lt;br/&gt;&lt;/i&gt;&lt;/font&gt;&lt;/div&gt;" tags="背景" id="QorwKqGtvu0XsbEE5Cfv-160">
          <mxCell style="verticalAlign=middle;align=center;overflow=width;vsdxID=249;fillColor=none;gradientColor=none;shape=stencil(nZBLDoAgDERP0z3SIyjew0SURgSD+Lu9kMZoXLhwN9O+tukAlrNpJg1SzDH4QW/URgNYgZTkjA4UkwJUgGXng+6DX1zLfmoymdXo17xh5zmRJ6Q42BWCfc2oJfdAr+Yv+AP9Cb7OJ3H/2JG1HNGz/84klThPVCc=);strokeColor=none;strokeWidth=2;points=[];labelBackgroundColor=none;rounded=0;html=1;whiteSpace=wrap;" vertex="1" parent="1">
            <mxGeometry x="144" y="2031" width="279" height="42" as="geometry" />
          </mxCell>
        </UserObject>
        <UserObject label="&lt;div style=&quot;font-size: 1px&quot;&gt;&lt;font style=&quot;font-size:33.87px;font-family:Times New Roman;color:#000000;direction:ltr;letter-spacing:0px;line-height:120%;opacity:1&quot;&gt;&lt;i&gt;Follower USV3&lt;br/&gt;&lt;/i&gt;&lt;/font&gt;&lt;/div&gt;" tags="背景" id="QorwKqGtvu0XsbEE5Cfv-161">
          <mxCell style="verticalAlign=middle;align=center;overflow=width;vsdxID=250;fillColor=none;gradientColor=none;shape=stencil(nZBLDoAgDERP0z3SIyjew0SURgSD+Lu9kMZoXLhwN9O+tukAlrNpJg1SzDH4QW/URgNYgZTkjA4UkwJUgGXng+6DX1zLfmoymdXo17xh5zmRJ6Q42BWCfc2oJfdAr+Yv+AP9Cb7OJ3H/2JG1HNGz/84klThPVCc=);strokeColor=none;strokeWidth=2;points=[];labelBackgroundColor=none;rounded=0;html=1;whiteSpace=wrap;" vertex="1" parent="1">
            <mxGeometry x="723" y="2092" width="250" height="40" as="geometry" />
          </mxCell>
        </UserObject>
        <UserObject label="&lt;div style=&quot;font-size: 1px&quot;&gt;&lt;font style=&quot;font-size:22.58px;font-family:Times New Roman;color:#000000;direction:ltr;letter-spacing:0px;line-height:120%;opacity:1&quot;&gt;&lt;i&gt;E&lt;br/&gt;&lt;/i&gt;&lt;/font&gt;&lt;/div&gt;" tags="背景" id="QorwKqGtvu0XsbEE5Cfv-162">
          <mxCell style="verticalAlign=middle;align=center;overflow=width;vsdxID=266;fillColor=none;gradientColor=none;shape=stencil(nZBLDoAgDERP0z3SIyjew0SURgSD+Lu9kMZoXLhwN9O+tukAlrNpJg1SzDH4QW/URgNYgZTkjA4UkwJUgGXng+6DX1zLfmoymdXo17xh5zmRJ6Q42BWCfc2oJfdAr+Yv+AP9Cb7OJ3H/2JG1HNGz/84klThPVCc=);strokeColor=none;strokeWidth=2;points=[];labelBackgroundColor=none;rounded=0;html=1;whiteSpace=wrap;" vertex="1" parent="1">
            <mxGeometry x="1038" y="2160" width="20" height="24" as="geometry" />
          </mxCell>
        </UserObject>
        <UserObject label="&lt;div style=&quot;font-size: 1px&quot;&gt;&lt;font style=&quot;font-size:22.58px;font-family:Times New Roman;color:#000000;direction:ltr;letter-spacing:0px;line-height:120%;opacity:1&quot;&gt;&lt;i&gt;E&lt;br/&gt;&lt;/i&gt;&lt;/font&gt;&lt;/div&gt;" tags="背景" id="QorwKqGtvu0XsbEE5Cfv-163">
          <mxCell style="verticalAlign=middle;align=center;overflow=width;vsdxID=267;fillColor=none;gradientColor=none;shape=stencil(nZBLDoAgDERP0z3SIyjew0SURgSD+Lu9kMZoXLhwN9O+tukAlrNpJg1SzDH4QW/URgNYgZTkjA4UkwJUgGXng+6DX1zLfmoymdXo17xh5zmRJ6Q42BWCfc2oJfdAr+Yv+AP9Cb7OJ3H/2JG1HNGz/84klThPVCc=);strokeColor=none;strokeWidth=2;points=[];labelBackgroundColor=none;rounded=0;html=1;whiteSpace=wrap;" vertex="1" parent="1">
            <mxGeometry x="124" y="2125" width="20" height="24" as="geometry" />
          </mxCell>
        </UserObject>
        <UserObject label="" tags="背景" id="QorwKqGtvu0XsbEE5Cfv-164">
          <mxCell style="vsdxID=268;fillColor=none;gradientColor=none;strokeColor=none;strokeWidth=2;points=[];labelBackgroundColor=none;rounded=0;html=1;whiteSpace=wrap;" vertex="1" parent="1">
            <mxGeometry x="81" y="1399" width="43" height="50" as="geometry" />
          </mxCell>
        </UserObject>
        <mxCell id="QorwKqGtvu0XsbEE5Cfv-165" value="&lt;div style=&quot;font-size: 1px&quot;&gt;&lt;font style=&quot;font-size:42.33px;font-family:Times New Roman;color:#000000;direction:ltr;letter-spacing:0px;line-height:120%;opacity:1&quot;&gt;&lt;i&gt;X&lt;br/&gt;&lt;/i&gt;&lt;/font&gt;&lt;/div&gt;" style="verticalAlign=middle;align=center;overflow=width;vsdxID=269;fillColor=#ffffff;gradientColor=none;shape=stencil(nZBLDoAgDERP0z3SIyjew0SURgSD+Lu9kMZoXLhwN9O+tukAlrNpJg1SzDH4QW/URgNYgZTkjA4UkwJUgGXng+6DX1zLfmoymdXo17xh5zmRJ6Q42BWCfc2oJfdAr+Yv+AP9Cb7OJ3H/2JG1HNGz/84klThPVCc=);strokeColor=none;strokeWidth=2;points=[];labelBackgroundColor=none;rounded=0;html=1;whiteSpace=wrap;" vertex="1" parent="QorwKqGtvu0XsbEE5Cfv-164">
          <mxGeometry width="34" height="41" as="geometry" />
        </mxCell>
        <mxCell id="QorwKqGtvu0XsbEE5Cfv-166" value="&lt;div style=&quot;font-size: 1px&quot;&gt;&lt;font style=&quot;font-size:22.58px;font-family:Times New Roman;color:#000000;direction:ltr;letter-spacing:0px;line-height:120%;opacity:1&quot;&gt;&lt;i&gt;E&lt;br/&gt;&lt;/i&gt;&lt;/font&gt;&lt;/div&gt;" style="verticalAlign=middle;align=center;overflow=width;vsdxID=270;fillColor=none;gradientColor=none;shape=stencil(nZBLDoAgDERP0z3SIyjew0SURgSD+Lu9kMZoXLhwN9O+tukAlrNpJg1SzDH4QW/URgNYgZTkjA4UkwJUgGXng+6DX1zLfmoymdXo17xh5zmRJ6Q42BWCfc2oJfdAr+Yv+AP9Cb7OJ3H/2JG1HNGz/84klThPVCc=);strokeColor=none;strokeWidth=2;points=[];labelBackgroundColor=none;rounded=0;html=1;whiteSpace=wrap;" vertex="1" parent="QorwKqGtvu0XsbEE5Cfv-164">
          <mxGeometry x="22" y="25" width="20" height="24" as="geometry" />
        </mxCell>
        <mxCell id="QorwKqGtvu0XsbEE5Cfv-167" value="" style="group" vertex="1" connectable="0" parent="1">
          <mxGeometry x="782.9989189304306" y="1901" width="120.06216213913876" height="189.46610991211378" as="geometry" />
        </mxCell>
        <mxCell id="QorwKqGtvu0XsbEE5Cfv-168" style="vsdxID=347;rotation=255;fillColor=none;gradientColor=none;strokeColor=none;strokeWidth=2;points=[];labelBackgroundColor=none;rounded=0;html=1;whiteSpace=wrap;" vertex="1" parent="QorwKqGtvu0XsbEE5Cfv-167">
          <mxGeometry x="-3.9689189304306183" y="71" width="128" height="90" as="geometry" />
        </mxCell>
        <mxCell id="QorwKqGtvu0XsbEE5Cfv-169" style="vsdxID=348;rotation=315;fillColor=#00fefe;gradientColor=none;shape=stencil(lZPRcoMgEEW/hkeZZdERntPkP5gElamVDJrG/H2xUBQzk2ne2OWwFy67hB/GTl01QRgnZz/13VymjvAPgmiGTjsz+RXhR8IPjXW6dfY2XEJ8VQu5rL7s91JhDueAAi6HEB4hwQB+41OgzzcXcJZ4FvmYkZIyGVIzRigSMZSCchEJnhMxlDWt6peyuWYpqRS5JvPXYLkuA4os1y1LWuXSQKXcKit39rtuTlXrcDFw0SCskmURqqpUdFcT5kLNZiycndRk7JA9pleu1YXXK5petdnWeNf6ukmzV94IoELm/mxfjvm/Jne2HvI9899/WU+w57/G1CB/djzwuWf4SolcfdeKvRneaNz3aL9YJ6QxfR8GbLu/nyifCtPIjz8=);strokeColor=none;strokeWidth=0;spacingTop=-3;spacingBottom=-3;spacingLeft=-3;spacingRight=-3;points=[];labelBackgroundColor=none;rounded=0;html=1;whiteSpace=wrap;" vertex="1" parent="QorwKqGtvu0XsbEE5Cfv-168">
          <mxGeometry x="-6" y="-9" width="58" height="46" as="geometry" />
        </mxCell>
        <mxCell id="QorwKqGtvu0XsbEE5Cfv-170" style="vsdxID=349;rotation=315;fillColor=#00fefe;gradientColor=none;shape=stencil(nZBRDoQgDERP03+WHsHFe5iISyOCQdT19kIaIxq//Jtp3zTpAFaTaUYNUkwx+F6v1EYD+AUpyRkdKCYFqACrzgf9C352LfuxyWRWg1/yhT/nRE5IsZWuZtCSK8CPeI0e/hF+jV7AJM4PO7KWCyr390bSiNtEtQM=);strokeColor=none;strokeWidth=0;spacingTop=-3;spacingBottom=-3;spacingLeft=-3;spacingRight=-3;points=[];labelBackgroundColor=none;rounded=0;html=1;whiteSpace=wrap;" vertex="1" parent="QorwKqGtvu0XsbEE5Cfv-168">
          <mxGeometry x="38" y="18" width="58" height="78" as="geometry" />
        </mxCell>
        <mxCell id="QorwKqGtvu0XsbEE5Cfv-171" style="vsdxID=350;rotation=315;fillColor=#90aadb;gradientColor=none;shape=stencil(tZTbUsMgEIafhsswHJPmWut7MC1tGWPSIamNby+RhWSjrTqjd7B8sP8eWCIf+pM5WyJYP/ju2V7dfjgR+UiEcO3JejeEFZFbIh8OnbdH313afdyfzUROq5fudXphjPdqTXU13RLsLVrYx+4pwruLjzTP+KYEHEyMljxaRgFQSbkGCEyccvAyygwpBZBMUFktnRu/C6celGrKgfegNJhUehUerWmNgglIJQEpzOj6wneDGVzXLoNljfFHWwR/xaExR3TUX609L8z8Xno4Yzg5SlEtcXZmBgxlTdkqOTMj18xPPW/KnK9cl4rqzaou6VouSxBcY9+JAc+Naxf9E0rAUcZX9FqnoEpiobMEgRKfJC4DkZi4lRwskZGvO+JGl4nPXVZr1GUy1zTFTEX6Av/QZFggD79EYoV6ritAKgtCn/qv5N3ph2/mya/gsJjH1sE1TZx6y/P1mAumOCLl9h0=);strokeColor=none;strokeWidth=0;spacingTop=-3;spacingBottom=-3;spacingLeft=-3;spacingRight=-3;points=[];labelBackgroundColor=none;rounded=0;html=1;whiteSpace=wrap;" vertex="1" parent="QorwKqGtvu0XsbEE5Cfv-168">
          <mxGeometry x="51" y="35" width="21" height="30" as="geometry" />
        </mxCell>
        <mxCell id="QorwKqGtvu0XsbEE5Cfv-172" style="vsdxID=351;rotation=255;fillColor=none;gradientColor=none;strokeColor=none;strokeWidth=2;points=[];labelBackgroundColor=none;rounded=0;html=1;whiteSpace=wrap;" vertex="1" parent="QorwKqGtvu0XsbEE5Cfv-168">
          <mxGeometry x="85" y="69" width="26" height="39" as="geometry" />
        </mxCell>
        <mxCell id="QorwKqGtvu0XsbEE5Cfv-173" style="vsdxID=352;rotation=315;fillColor=#003232;gradientColor=none;shape=stencil(vVFBDgIhDHwNRxKE+IJ1/Ufjll0iLpuCLv5eSDWKevLgbaYznTatMF2cYEGhVUwUjri6IU3C7ITWbp6QXCpImF6YzgbCkcJ5HpgvUJ0VncKlJmTuU7VDqyuzLdM9O4EORaLcaIpa7yNoo75GqSwhuygpJEguzM1UDzSiLGOk9TDec1iKK+LyUf5lsf+tVcDzzNZ5z1961d/fUkr8UtPfAA==);strokeColor=#3c668c;points=[[0.5,0,0],[0.5,0.5,0],[0.5,0.5,0],[0.5,0.5,0],[1,0.5,0]];labelBackgroundColor=none;rounded=0;html=1;whiteSpace=wrap;" vertex="1" parent="QorwKqGtvu0XsbEE5Cfv-172">
          <mxGeometry x="13" y="6" width="19" height="8" as="geometry" />
        </mxCell>
        <mxCell id="QorwKqGtvu0XsbEE5Cfv-174" style="vsdxID=353;rotation=315;fillColor=#003232;gradientColor=none;shape=stencil(vVFBDgIhDHwNRxKE+IJ1/Ufjll0iLpuCLv5eSDWKevLgbaYznTatMF2cYEGhVUwUjri6IU3C7ITWbp6QXCpImF6YzgbCkcJ5HpgvUJ0VncKlJmTuU7VDqyuzLdM9O4EORaLcaIpa7yNoo75GqSwhuygpJEguzM1UDzSiLGOk9TDec1iKK+LyUf5lsf+tVcDzzNZ5z1961d/fUkr8UtPfAA==);strokeColor=#3c668c;points=[[0.5,0,0],[0.5,0.5,0],[0.5,0.5,0],[0.5,0.5,0],[1,0.5,0]];labelBackgroundColor=none;rounded=0;html=1;whiteSpace=wrap;" vertex="1" parent="QorwKqGtvu0XsbEE5Cfv-172">
          <mxGeometry x="-6" y="26" width="19" height="8" as="geometry" />
        </mxCell>
        <mxCell id="QorwKqGtvu0XsbEE5Cfv-175" style="vsdxID=354;rotation=315;fillColor=#003232;gradientColor=none;shape=stencil(vVHLDsIgEPwajiQU4hfU+h8bu7RELM2CFv9eyMZYjCcP3mZ2Zh/ZEaaPM6wotIqJwgU3N6ZZmKPQ2i0zkksFCTMI09tAOFG4LSPzFaqzomu41wmZ+1Tt0OrB7MD0xE6gc5EoN5qi1vsa1Kmvo1SWkF2UFBIkF5ZmqweaUJY10nqYGiluiOuu3P182P/OKuD9Zuu855T2+mcspcSRmuEJ);strokeColor=#3c668c;points=[[0.5,0,0],[0.5,0.5,0],[0.5,0.5,0],[0.5,0.5,0],[1,0.5,0],[0.15,0.85,0],[0.85,0.85,0],[0.85,0.15,0],[0.15,0.15,0]];labelBackgroundColor=none;rounded=0;html=1;whiteSpace=wrap;" vertex="1" parent="QorwKqGtvu0XsbEE5Cfv-172">
          <mxGeometry x="8" y="15" width="10" height="10" as="geometry" />
        </mxCell>
        <mxCell id="QorwKqGtvu0XsbEE5Cfv-176" style="vsdxID=355;rotation=278;fillColor=none;gradientColor=none;strokeColor=none;strokeWidth=2;points=[];labelBackgroundColor=none;rounded=0;html=1;whiteSpace=wrap;" vertex="1" parent="QorwKqGtvu0XsbEE5Cfv-167">
          <mxGeometry x="30.03108106956938" y="57" width="46" height="86" as="geometry" />
        </mxCell>
        <UserObject label="" tags="连接线" id="QorwKqGtvu0XsbEE5Cfv-177">
          <mxCell style="vsdxID=356;edgeStyle=none;startArrow=none;endArrow=open;startSize=5;endSize=5;strokeColor=#000000;spacingTop=0;spacingBottom=0;spacingLeft=0;spacingRight=0;verticalAlign=middle;html=1;labelBackgroundColor=#ffffff;rounded=0;" edge="1" parent="QorwKqGtvu0XsbEE5Cfv-176">
            <mxGeometry relative="1" as="geometry">
              <Array as="points" />
              <mxPoint x="30" y="67" as="sourcePoint" />
              <mxPoint x="-65" y="-24" as="targetPoint" />
            </mxGeometry>
          </mxCell>
        </UserObject>
        <UserObject label="" tags="连接线" id="QorwKqGtvu0XsbEE5Cfv-178">
          <mxCell style="vsdxID=357;edgeStyle=none;startArrow=none;endArrow=open;startSize=5;endSize=5;strokeColor=#000000;spacingTop=0;spacingBottom=0;spacingLeft=0;spacingRight=0;verticalAlign=middle;html=1;labelBackgroundColor=#ffffff;rounded=0;" edge="1" parent="QorwKqGtvu0XsbEE5Cfv-176">
            <mxGeometry relative="1" as="geometry">
              <Array as="points" />
              <mxPoint x="30" y="67" as="sourcePoint" />
              <mxPoint x="93" y="13" as="targetPoint" />
            </mxGeometry>
          </mxCell>
        </UserObject>
        <UserObject label="" tags="连接线" id="QorwKqGtvu0XsbEE5Cfv-179">
          <mxCell style="vsdxID=358;edgeStyle=none;dashed=1;startArrow=open;endArrow=none;startSize=5;endSize=5;strokeColor=#000000;spacingTop=0;spacingBottom=0;spacingLeft=0;spacingRight=0;verticalAlign=middle;html=1;labelBackgroundColor=#FFFFFF;rounded=0;" edge="1" parent="QorwKqGtvu0XsbEE5Cfv-167">
            <mxGeometry relative="1" as="geometry">
              <Array as="points" />
              <mxPoint x="62.03108106956938" as="sourcePoint" />
              <mxPoint x="61.03108106956938" y="124" as="targetPoint" />
            </mxGeometry>
          </mxCell>
        </UserObject>
        <mxCell id="QorwKqGtvu0XsbEE5Cfv-180" value="" style="group" vertex="1" connectable="0" parent="1">
          <mxGeometry x="186" y="1441" width="162" height="201" as="geometry" />
        </mxCell>
        <UserObject label="" tags="连接线" id="QorwKqGtvu0XsbEE5Cfv-181">
          <mxCell style="vsdxID=308;edgeStyle=none;startArrow=none;endArrow=none;startSize=5;endSize=5;strokeColor=#000000;spacingTop=0;spacingBottom=0;spacingLeft=0;spacingRight=0;verticalAlign=middle;html=1;labelBackgroundColor=#ffffff;rounded=0;jumpStyle=arc;" edge="1" parent="QorwKqGtvu0XsbEE5Cfv-180">
            <mxGeometry relative="1" as="geometry">
              <Array as="points" />
              <mxPoint x="86" y="99" as="sourcePoint" />
              <mxPoint x="85" y="87" as="targetPoint" />
            </mxGeometry>
          </mxCell>
        </UserObject>
        <mxCell id="QorwKqGtvu0XsbEE5Cfv-182" style="vsdxID=297;rotation=167;fillColor=#00fefe;gradientColor=none;shape=stencil(lZPRcoMgEEW/hkeZZdERntPkP5gElamVDJrG/H2xUBQzk2ne2OWwFy67hB/GTl01QRgnZz/13VymjvAPgmiGTjsz+RXhR8IPjXW6dfY2XEJ8VQu5rL7s91JhDueAAi6HEB4hwQB+41OgzzcXcJZ4FvmYkZIyGVIzRigSMZSCchEJnhMxlDWt6peyuWYpqRS5JvPXYLkuA4os1y1LWuXSQKXcKit39rtuTlXrcDFw0SCskmURqqpUdFcT5kLNZiycndRk7JA9pleu1YXXK5petdnWeNf6ukmzV94IoELm/mxfjvm/Jne2HvI9899/WU+w57/G1CB/djzwuWf4SolcfdeKvRneaNz3aL9YJ6QxfR8GbLu/nyifCtPIjz8=);strokeColor=none;strokeWidth=0;spacingTop=-3;spacingBottom=-3;spacingLeft=-3;spacingRight=-3;points=[];labelBackgroundColor=none;rounded=0;html=1;whiteSpace=wrap;container=0;" vertex="1" parent="QorwKqGtvu0XsbEE5Cfv-180">
          <mxGeometry x="66" y="117" width="58" height="46" as="geometry" />
        </mxCell>
        <mxCell id="QorwKqGtvu0XsbEE5Cfv-183" style="vsdxID=298;rotation=167;fillColor=#00fefe;gradientColor=none;shape=stencil(nZBRDoQgDERP03+WHsHFe5iISyOCQdT19kIaIxq//Jtp3zTpAFaTaUYNUkwx+F6v1EYD+AUpyRkdKCYFqACrzgf9C352LfuxyWRWg1/yhT/nRE5IsZWuZtCSK8CPeI0e/hF+jV7AJM4PO7KWCyr390bSiNtEtQM=);strokeColor=none;strokeWidth=0;spacingTop=-3;spacingBottom=-3;spacingLeft=-3;spacingRight=-3;points=[];labelBackgroundColor=none;rounded=0;html=1;whiteSpace=wrap;container=0;" vertex="1" parent="QorwKqGtvu0XsbEE5Cfv-180">
          <mxGeometry x="52" y="41" width="58" height="78" as="geometry" />
        </mxCell>
        <mxCell id="QorwKqGtvu0XsbEE5Cfv-184" style="vsdxID=299;rotation=167;fillColor=#90aadb;gradientColor=none;shape=stencil(tZTbUsMgEIafhsswHJPmWut7MC1tGWPSIamNby+RhWSjrTqjd7B8sP8eWCIf+pM5WyJYP/ju2V7dfjgR+UiEcO3JejeEFZFbIh8OnbdH313afdyfzUROq5fudXphjPdqTXU13RLsLVrYx+4pwruLjzTP+KYEHEyMljxaRgFQSbkGCEyccvAyygwpBZBMUFktnRu/C6celGrKgfegNJhUehUerWmNgglIJQEpzOj6wneDGVzXLoNljfFHWwR/xaExR3TUX609L8z8Xno4Yzg5SlEtcXZmBgxlTdkqOTMj18xPPW/KnK9cl4rqzaou6VouSxBcY9+JAc+Naxf9E0rAUcZX9FqnoEpiobMEgRKfJC4DkZi4lRwskZGvO+JGl4nPXVZr1GUy1zTFTEX6Av/QZFggD79EYoV6ritAKgtCn/qv5N3ph2/mya/gsJjH1sE1TZx6y/P1mAumOCLl9h0=);strokeColor=none;strokeWidth=0;spacingTop=-3;spacingBottom=-3;spacingLeft=-3;spacingRight=-3;points=[];labelBackgroundColor=none;rounded=0;html=1;whiteSpace=wrap;container=0;" vertex="1" parent="QorwKqGtvu0XsbEE5Cfv-180">
          <mxGeometry x="72" y="73" width="21" height="30" as="geometry" />
        </mxCell>
        <mxCell id="QorwKqGtvu0XsbEE5Cfv-185" style="vsdxID=301;rotation=167;fillColor=#003232;gradientColor=none;shape=stencil(vVFBDgIhDHwNRxKE+IJ1/Ufjll0iLpuCLv5eSDWKevLgbaYznTatMF2cYEGhVUwUjri6IU3C7ITWbp6QXCpImF6YzgbCkcJ5HpgvUJ0VncKlJmTuU7VDqyuzLdM9O4EORaLcaIpa7yNoo75GqSwhuygpJEguzM1UDzSiLGOk9TDec1iKK+LyUf5lsf+tVcDzzNZ5z1961d/fUkr8UtPfAA==);strokeColor=#3c668c;points=[[0.5,0,0],[0.5,0.5,0],[0.5,0.5,0],[0.5,0.5,0],[1,0.5,0]];labelBackgroundColor=none;rounded=0;html=1;whiteSpace=wrap;container=0;" vertex="1" parent="QorwKqGtvu0XsbEE5Cfv-180">
          <mxGeometry x="49" y="34" width="19" height="8" as="geometry" />
        </mxCell>
        <mxCell id="QorwKqGtvu0XsbEE5Cfv-186" style="vsdxID=302;rotation=167;fillColor=#003232;gradientColor=none;shape=stencil(vVFBDgIhDHwNRxKE+IJ1/Ufjll0iLpuCLv5eSDWKevLgbaYznTatMF2cYEGhVUwUjri6IU3C7ITWbp6QXCpImF6YzgbCkcJ5HpgvUJ0VncKlJmTuU7VDqyuzLdM9O4EORaLcaIpa7yNoo75GqSwhuygpJEguzM1UDzSiLGOk9TDec1iKK+LyUf5lsf+tVcDzzNZ5z1961d/fUkr8UtPfAA==);strokeColor=#3c668c;points=[[0.5,0,0],[0.5,0.5,0],[0.5,0.5,0],[0.5,0.5,0],[1,0.5,0]];labelBackgroundColor=none;rounded=0;html=1;whiteSpace=wrap;container=0;" vertex="1" parent="QorwKqGtvu0XsbEE5Cfv-180">
          <mxGeometry x="75" y="28" width="19" height="8" as="geometry" />
        </mxCell>
        <mxCell id="QorwKqGtvu0XsbEE5Cfv-187" style="vsdxID=303;rotation=167;fillColor=#003232;gradientColor=none;shape=stencil(vVHLDsIgEPwajiQU4hfU+h8bu7RELM2CFv9eyMZYjCcP3mZ2Zh/ZEaaPM6wotIqJwgU3N6ZZmKPQ2i0zkksFCTMI09tAOFG4LSPzFaqzomu41wmZ+1Tt0OrB7MD0xE6gc5EoN5qi1vsa1Kmvo1SWkF2UFBIkF5ZmqweaUJY10nqYGiluiOuu3P182P/OKuD9Zuu855T2+mcspcSRmuEJ);strokeColor=#3c668c;points=[[0.5,0,0],[0.5,0.5,0],[0.5,0.5,0],[0.5,0.5,0],[1,0.5,0],[0.15,0.85,0],[0.85,0.85,0],[0.85,0.15,0],[0.15,0.15,0]];labelBackgroundColor=none;rounded=0;html=1;whiteSpace=wrap;container=0;" vertex="1" parent="QorwKqGtvu0XsbEE5Cfv-180">
          <mxGeometry x="66" y="31" width="10" height="10" as="geometry" />
        </mxCell>
        <UserObject label="" tags="连接线" id="QorwKqGtvu0XsbEE5Cfv-188">
          <mxCell style="vsdxID=305;edgeStyle=none;startArrow=none;endArrow=open;startSize=5;endSize=5;strokeColor=#000000;spacingTop=0;spacingBottom=0;spacingLeft=0;spacingRight=0;verticalAlign=middle;html=1;labelBackgroundColor=#ffffff;rounded=0;" edge="1" parent="QorwKqGtvu0XsbEE5Cfv-180">
            <mxGeometry relative="1" as="geometry">
              <Array as="points" />
              <mxPoint x="87" y="96" as="sourcePoint" />
              <mxPoint x="111" y="201" as="targetPoint" />
            </mxGeometry>
          </mxCell>
        </UserObject>
        <UserObject label="" tags="连接线" id="QorwKqGtvu0XsbEE5Cfv-189">
          <mxCell style="vsdxID=306;edgeStyle=none;startArrow=none;endArrow=open;startSize=5;endSize=5;strokeColor=#000000;spacingTop=0;spacingBottom=0;spacingLeft=0;spacingRight=0;verticalAlign=middle;html=1;labelBackgroundColor=#ffffff;rounded=0;" edge="1" parent="QorwKqGtvu0XsbEE5Cfv-180">
            <mxGeometry relative="1" as="geometry">
              <Array as="points" />
              <mxPoint x="87" y="96" as="sourcePoint" />
              <mxPoint y="120" as="targetPoint" />
            </mxGeometry>
          </mxCell>
        </UserObject>
        <UserObject label="" tags="连接线" id="QorwKqGtvu0XsbEE5Cfv-190">
          <mxCell style="vsdxID=307;edgeStyle=none;dashed=1;startArrow=open;endArrow=none;startSize=5;endSize=5;strokeColor=#000000;spacingTop=0;spacingBottom=0;spacingLeft=0;spacingRight=0;verticalAlign=middle;html=1;labelBackgroundColor=#FFFFFF;rounded=0;" edge="1" parent="QorwKqGtvu0XsbEE5Cfv-180">
            <mxGeometry relative="1" as="geometry">
              <Array as="points" />
              <mxPoint x="87" as="sourcePoint" />
              <mxPoint x="87" y="94" as="targetPoint" />
            </mxGeometry>
          </mxCell>
        </UserObject>
        <mxCell id="QorwKqGtvu0XsbEE5Cfv-191" value="\(Y_{B}\)" style="text;html=1;align=center;verticalAlign=middle;whiteSpace=wrap;rounded=0;fontSize=18;fontStyle=1" vertex="1" parent="QorwKqGtvu0XsbEE5Cfv-180">
          <mxGeometry x="-13" y="130" width="41" height="20" as="geometry" />
        </mxCell>
        <mxCell id="QorwKqGtvu0XsbEE5Cfv-192" value="\(X_{E}\)" style="text;html=1;align=center;verticalAlign=middle;whiteSpace=wrap;rounded=0;fontSize=18;fontStyle=1" vertex="1" parent="QorwKqGtvu0XsbEE5Cfv-180">
          <mxGeometry x="94" width="34" height="20" as="geometry" />
        </mxCell>
        <mxCell id="QorwKqGtvu0XsbEE5Cfv-193" value="\(X_{B}\)" style="text;html=1;align=center;verticalAlign=middle;whiteSpace=wrap;rounded=0;fontSize=18;fontStyle=1" vertex="1" parent="QorwKqGtvu0XsbEE5Cfv-180">
          <mxGeometry x="128" y="181" width="34" height="20" as="geometry" />
        </mxCell>
        <mxCell id="QorwKqGtvu0XsbEE5Cfv-194" value="" style="group" vertex="1" connectable="0" parent="1">
          <mxGeometry x="203.0042082786187" y="1771" width="119.9957917213813" height="202.66295090390236" as="geometry" />
        </mxCell>
        <mxCell id="QorwKqGtvu0XsbEE5Cfv-195" style="vsdxID=325;rotation=315;fillColor=none;gradientColor=none;strokeColor=none;strokeWidth=2;points=[];labelBackgroundColor=none;rounded=0;html=1;whiteSpace=wrap;" vertex="1" parent="QorwKqGtvu0XsbEE5Cfv-194">
          <mxGeometry x="12.105791721381308" y="157" width="35.000000000000014" height="39" as="geometry" />
        </mxCell>
        <mxCell id="QorwKqGtvu0XsbEE5Cfv-196" value="" style="group" vertex="1" connectable="0" parent="QorwKqGtvu0XsbEE5Cfv-195">
          <mxGeometry x="-10.71157153015622" y="10.67751576636988" width="46.42314306031247" height="18.64496846726044" as="geometry" />
        </mxCell>
        <mxCell id="QorwKqGtvu0XsbEE5Cfv-197" style="vsdxID=326;rotation=15;fillColor=#003232;gradientColor=none;shape=stencil(vVFBDgIhDHwNRxKE+IJ1/Ufjll0iLpuCLv5eSDWKevLgbaYznTatMF2cYEGhVUwUjri6IU3C7ITWbp6QXCpImF6YzgbCkcJ5HpgvUJ0VncKlJmTuU7VDqyuzLdM9O4EORaLcaIpa7yNoo75GqSwhuygpJEguzM1UDzSiLGOk9TDec1iKK+LyUf5lsf+tVcDzzNZ5z1961d/fUkr8UtPfAA==);strokeColor=#3c668c;points=[[0.5,0,0],[0.5,0.5,0],[0.5,0.5,0],[0.5,0.5,0],[1,0.5,0]];labelBackgroundColor=none;rounded=0;html=1;whiteSpace=wrap;container=0;" vertex="1" parent="QorwKqGtvu0XsbEE5Cfv-196">
          <mxGeometry x="26.71157153015623" y="8.32248423363022" width="19" height="8" as="geometry" />
        </mxCell>
        <mxCell id="QorwKqGtvu0XsbEE5Cfv-198" style="vsdxID=327;rotation=15;fillColor=#003232;gradientColor=none;shape=stencil(vVFBDgIhDHwNRxKE+IJ1/Ufjll0iLpuCLv5eSDWKevLgbaYznTatMF2cYEGhVUwUjri6IU3C7ITWbp6QXCpImF6YzgbCkcJ5HpgvUJ0VncKlJmTuU7VDqyuzLdM9O4EORaLcaIpa7yNoo75GqSwhuygpJEguzM1UDzSiLGOk9TDec1iKK+LyUf5lsf+tVcDzzNZ5z1961d/fUkr8UtPfAA==);strokeColor=#3c668c;points=[[0.5,0,0],[0.5,0.5,0],[0.5,0.5,0],[0.5,0.5,0],[1,0.5,0]];labelBackgroundColor=none;rounded=0;html=1;whiteSpace=wrap;container=0;" vertex="1" parent="QorwKqGtvu0XsbEE5Cfv-196">
          <mxGeometry x="0.7115715301562311" y="2.3224842336302203" width="19" height="8" as="geometry" />
        </mxCell>
        <mxCell id="QorwKqGtvu0XsbEE5Cfv-199" style="vsdxID=328;rotation=15;fillColor=#003232;gradientColor=none;shape=stencil(vVHLDsIgEPwajiQU4hfU+h8bu7RELM2CFv9eyMZYjCcP3mZ2Zh/ZEaaPM6wotIqJwgU3N6ZZmKPQ2i0zkksFCTMI09tAOFG4LSPzFaqzomu41wmZ+1Tt0OrB7MD0xE6gc5EoN5qi1vsa1Kmvo1SWkF2UFBIkF5ZmqweaUJY10nqYGiluiOuu3P182P/OKuD9Zuu855T2+mcspcSRmuEJ);strokeColor=#3c668c;points=[[0.5,0,0],[0.5,0.5,0],[0.5,0.5,0],[0.5,0.5,0],[1,0.5,0],[0.15,0.85,0],[0.85,0.85,0],[0.85,0.15,0],[0.15,0.15,0]];labelBackgroundColor=none;rounded=0;html=1;whiteSpace=wrap;container=0;" vertex="1" parent="QorwKqGtvu0XsbEE5Cfv-196">
          <mxGeometry x="18.71157153015623" y="3.3224842336302203" width="10" height="10" as="geometry" />
        </mxCell>
        <mxCell id="QorwKqGtvu0XsbEE5Cfv-200" style="vsdxID=322;rotation=15;fillColor=#00fefe;gradientColor=none;shape=stencil(lZPRcoMgEEW/hkeZZdERntPkP5gElamVDJrG/H2xUBQzk2ne2OWwFy67hB/GTl01QRgnZz/13VymjvAPgmiGTjsz+RXhR8IPjXW6dfY2XEJ8VQu5rL7s91JhDueAAi6HEB4hwQB+41OgzzcXcJZ4FvmYkZIyGVIzRigSMZSCchEJnhMxlDWt6peyuWYpqRS5JvPXYLkuA4os1y1LWuXSQKXcKit39rtuTlXrcDFw0SCskmURqqpUdFcT5kLNZiycndRk7JA9pleu1YXXK5petdnWeNf6ukmzV94IoELm/mxfjvm/Jne2HvI9899/WU+w57/G1CB/djzwuWf4SolcfdeKvRneaNz3aL9YJ6QxfR8GbLu/nyifCtPIjz8=);strokeColor=none;strokeWidth=0;spacingTop=-3;spacingBottom=-3;spacingLeft=-3;spacingRight=-3;points=[];labelBackgroundColor=none;rounded=0;html=1;whiteSpace=wrap;container=0;" vertex="1" parent="QorwKqGtvu0XsbEE5Cfv-194">
          <mxGeometry x="25.10579172138131" y="51" width="58" height="45.72" as="geometry" />
        </mxCell>
        <mxCell id="QorwKqGtvu0XsbEE5Cfv-201" style="vsdxID=323;rotation=15;fillColor=#00fefe;gradientColor=none;shape=stencil(nZBRDoQgDERP03+WHsHFe5iISyOCQdT19kIaIxq//Jtp3zTpAFaTaUYNUkwx+F6v1EYD+AUpyRkdKCYFqACrzgf9C352LfuxyWRWg1/yhT/nRE5IsZWuZtCSK8CPeI0e/hF+jV7AJM4PO7KWCyr390bSiNtEtQM=);strokeColor=none;strokeWidth=0;spacingTop=-3;spacingBottom=-3;spacingLeft=-3;spacingRight=-3;points=[];labelBackgroundColor=none;rounded=0;html=1;whiteSpace=wrap;container=0;" vertex="1" parent="QorwKqGtvu0XsbEE5Cfv-194">
          <mxGeometry x="9.105791721381308" y="94" width="58" height="78" as="geometry" />
        </mxCell>
        <mxCell id="QorwKqGtvu0XsbEE5Cfv-202" style="vsdxID=324;rotation=15;fillColor=#90aadb;gradientColor=none;shape=stencil(tZTbUsMgEIafhsswHJPmWut7MC1tGWPSIamNby+RhWSjrTqjd7B8sP8eWCIf+pM5WyJYP/ju2V7dfjgR+UiEcO3JejeEFZFbIh8OnbdH313afdyfzUROq5fudXphjPdqTXU13RLsLVrYx+4pwruLjzTP+KYEHEyMljxaRgFQSbkGCEyccvAyygwpBZBMUFktnRu/C6celGrKgfegNJhUehUerWmNgglIJQEpzOj6wneDGVzXLoNljfFHWwR/xaExR3TUX609L8z8Xno4Yzg5SlEtcXZmBgxlTdkqOTMj18xPPW/KnK9cl4rqzaou6VouSxBcY9+JAc+Naxf9E0rAUcZX9FqnoEpiobMEgRKfJC4DkZi4lRwskZGvO+JGl4nPXVZr1GUy1zTFTEX6Av/QZFggD79EYoV6ritAKgtCn/qv5N3ph2/mya/gsJjH1sE1TZx6y/P1mAumOCLl9h0=);strokeColor=none;strokeWidth=0;spacingTop=-3;spacingBottom=-3;spacingLeft=-3;spacingRight=-3;points=[];labelBackgroundColor=none;rounded=0;html=1;whiteSpace=wrap;container=0;" vertex="1" parent="QorwKqGtvu0XsbEE5Cfv-194">
          <mxGeometry x="29.10579172138131" y="110" width="21" height="30" as="geometry" />
        </mxCell>
        <UserObject label="" tags="连接线" id="QorwKqGtvu0XsbEE5Cfv-203">
          <mxCell style="vsdxID=307;edgeStyle=none;dashed=1;startArrow=open;endArrow=none;startSize=5;endSize=5;strokeColor=#000000;spacingTop=0;spacingBottom=0;spacingLeft=0;spacingRight=0;verticalAlign=middle;html=1;labelBackgroundColor=#FFFFFF;rounded=0;" edge="1" parent="QorwKqGtvu0XsbEE5Cfv-194">
            <mxGeometry relative="1" as="geometry">
              <Array as="points" />
              <mxPoint x="39.995791721381295" as="sourcePoint" />
              <mxPoint x="39.46579172138132" y="125.86000000000013" as="targetPoint" />
            </mxGeometry>
          </mxCell>
        </UserObject>
        <UserObject label="" tags="连接线" id="QorwKqGtvu0XsbEE5Cfv-204">
          <mxCell style="vsdxID=357;edgeStyle=none;startArrow=none;endArrow=open;startSize=5;endSize=5;strokeColor=#000000;spacingTop=0;spacingBottom=0;spacingLeft=0;spacingRight=0;verticalAlign=middle;html=1;labelBackgroundColor=#ffffff;rounded=0;exitX=0.915;exitY=0.533;exitDx=0;exitDy=0;exitPerimeter=0;" edge="1" parent="QorwKqGtvu0XsbEE5Cfv-194">
            <mxGeometry relative="1" as="geometry">
              <Array as="points" />
              <mxPoint x="39.76760444283906" y="126.2118745460948" as="sourcePoint" />
              <mxPoint x="69.9957917213813" y="10" as="targetPoint" />
            </mxGeometry>
          </mxCell>
        </UserObject>
        <UserObject label="" tags="连接线" id="QorwKqGtvu0XsbEE5Cfv-205">
          <mxCell style="vsdxID=357;edgeStyle=none;startArrow=none;endArrow=open;startSize=5;endSize=5;strokeColor=#000000;spacingTop=0;spacingBottom=0;spacingLeft=0;spacingRight=0;verticalAlign=middle;html=1;labelBackgroundColor=#ffffff;rounded=0;exitX=0.915;exitY=0.533;exitDx=0;exitDy=0;exitPerimeter=0;" edge="1" parent="QorwKqGtvu0XsbEE5Cfv-194">
            <mxGeometry relative="1" as="geometry">
              <Array as="points" />
              <mxPoint x="38.76760444283906" y="125.2118745460948" as="sourcePoint" />
              <mxPoint x="119.9957917213813" y="150" as="targetPoint" />
            </mxGeometry>
          </mxCell>
        </UserObject>
        <mxCell id="QorwKqGtvu0XsbEE5Cfv-206" value="\(X_{E}\)" style="text;html=1;align=center;verticalAlign=middle;whiteSpace=wrap;rounded=0;fontSize=18;fontStyle=1" vertex="1" parent="QorwKqGtvu0XsbEE5Cfv-194">
          <mxGeometry x="-0.004208278618705208" y="-7" width="34" height="20" as="geometry" />
        </mxCell>
        <mxCell id="QorwKqGtvu0XsbEE5Cfv-207" value="\(X_{B}\)" style="text;html=1;align=center;verticalAlign=middle;whiteSpace=wrap;rounded=0;fontSize=18;fontStyle=1" vertex="1" parent="QorwKqGtvu0XsbEE5Cfv-194">
          <mxGeometry x="78.10579172138131" y="3" width="34" height="20" as="geometry" />
        </mxCell>
        <mxCell id="QorwKqGtvu0XsbEE5Cfv-208" value="" style="group" vertex="1" connectable="0" parent="1">
          <mxGeometry x="593" y="1428.6017696411973" width="139.0435842870421" height="112.01296706855135" as="geometry" />
        </mxCell>
        <mxCell id="QorwKqGtvu0XsbEE5Cfv-209" style="vsdxID=272;rotation=60;fillColor=#e51400;shape=stencil(lZPRcoMgEEW/hkeZZdERntPkP5gElamVDJrG/H2xUBQzk2ne2OWwFy67hB/GTl01QRgnZz/13VymjvAPgmiGTjsz+RXhR8IPjXW6dfY2XEJ8VQu5rL7s91JhDueAAi6HEB4hwQB+41OgzzcXcJZ4FvmYkZIyGVIzRigSMZSCchEJnhMxlDWt6peyuWYpqRS5JvPXYLkuA4os1y1LWuXSQKXcKit39rtuTlXrcDFw0SCskmURqqpUdFcT5kLNZiycndRk7JA9pleu1YXXK5petdnWeNf6ukmzV94IoELm/mxfjvm/Jne2HvI9899/WU+w57/G1CB/djzwuWf4SolcfdeKvRneaNz3aL9YJ6QxfR8GbLu/nyifCtPIjz8=);strokeColor=#B20000;strokeWidth=0;spacingTop=-3;spacingBottom=-3;spacingLeft=-3;spacingRight=-3;points=[];labelBackgroundColor=none;rounded=0;html=1;whiteSpace=wrap;fontColor=#ffffff;" vertex="1" parent="QorwKqGtvu0XsbEE5Cfv-208">
          <mxGeometry x="76" y="13.398230358802607" width="57.5" height="46" as="geometry" />
        </mxCell>
        <mxCell id="QorwKqGtvu0XsbEE5Cfv-210" style="vsdxID=273;rotation=60;fillColor=#e51400;shape=stencil(nZBRDoQgDERP03+WHsHFe5iISyOCQdT19kIaIxq//Jtp3zTpAFaTaUYNUkwx+F6v1EYD+AUpyRkdKCYFqACrzgf9C352LfuxyWRWg1/yhT/nRE5IsZWuZtCSK8CPeI0e/hF+jV7AJM4PO7KWCyr390bSiNtEtQM=);strokeColor=#B20000;strokeWidth=0;spacingTop=-3;spacingBottom=-3;spacingLeft=-3;spacingRight=-3;points=[];labelBackgroundColor=none;rounded=0;html=1;whiteSpace=wrap;fontColor=#ffffff;" vertex="1" parent="QorwKqGtvu0XsbEE5Cfv-208">
          <mxGeometry x="23" y="28.398230358802607" width="58" height="78" as="geometry" />
        </mxCell>
        <mxCell id="QorwKqGtvu0XsbEE5Cfv-211" style="vsdxID=274;rotation=60;fillColor=#ffcd28;gradientColor=#ffa500;shape=stencil(tZTbUsMgEIafhsswHJPmWut7MC1tGWPSIamNby+RhWSjrTqjd7B8sP8eWCIf+pM5WyJYP/ju2V7dfjgR+UiEcO3JejeEFZFbIh8OnbdH313afdyfzUROq5fudXphjPdqTXU13RLsLVrYx+4pwruLjzTP+KYEHEyMljxaRgFQSbkGCEyccvAyygwpBZBMUFktnRu/C6celGrKgfegNJhUehUerWmNgglIJQEpzOj6wneDGVzXLoNljfFHWwR/xaExR3TUX609L8z8Xno4Yzg5SlEtcXZmBgxlTdkqOTMj18xPPW/KnK9cl4rqzaou6VouSxBcY9+JAc+Naxf9E0rAUcZX9FqnoEpiobMEgRKfJC4DkZi4lRwskZGvO+JGl4nPXVZr1GUy1zTFTEX6Av/QZFggD79EYoV6ritAKgtCn/qv5N3ph2/mya/gsJjH1sE1TZx6y/P1mAumOCLl9h0=);strokeColor=#d79b00;strokeWidth=0;spacingTop=-3;spacingBottom=-3;spacingLeft=-3;spacingRight=-3;points=[];labelBackgroundColor=none;rounded=0;html=1;whiteSpace=wrap;" vertex="1" parent="QorwKqGtvu0XsbEE5Cfv-208">
          <mxGeometry x="49" y="48.39823035880261" width="21" height="30" as="geometry" />
        </mxCell>
        <mxCell id="QorwKqGtvu0XsbEE5Cfv-212" style="vsdxID=275;fillColor=none;gradientColor=none;strokeColor=none;strokeWidth=2;points=[];labelBackgroundColor=none;rounded=0;html=1;whiteSpace=wrap;" vertex="1" parent="QorwKqGtvu0XsbEE5Cfv-208">
          <mxGeometry y="69.3982303588026" width="26" height="39" as="geometry" />
        </mxCell>
        <mxCell id="QorwKqGtvu0XsbEE5Cfv-213" style="vsdxID=276;rotation=60;fillColor=#003232;gradientColor=none;shape=stencil(vVFBDgIhDHwNRxKE+IJ1/Ufjll0iLpuCLv5eSDWKevLgbaYznTatMF2cYEGhVUwUjri6IU3C7ITWbp6QXCpImF6YzgbCkcJ5HpgvUJ0VncKlJmTuU7VDqyuzLdM9O4EORaLcaIpa7yNoo75GqSwhuygpJEguzM1UDzSiLGOk9TDec1iKK+LyUf5lsf+tVcDzzNZ5z1961d/fUkr8UtPfAA==);strokeColor=#3c668c;points=[[0.5,0,0],[0.5,0.5,0],[0.5,0.5,0],[0.5,0.5,0],[1,0.5,0]];labelBackgroundColor=none;rounded=0;html=1;whiteSpace=wrap;" vertex="1" parent="QorwKqGtvu0XsbEE5Cfv-212">
          <mxGeometry x="10" y="27" width="19" height="8" as="geometry" />
        </mxCell>
        <mxCell id="QorwKqGtvu0XsbEE5Cfv-214" style="vsdxID=277;rotation=60;fillColor=#003232;gradientColor=none;shape=stencil(vVFBDgIhDHwNRxKE+IJ1/Ufjll0iLpuCLv5eSDWKevLgbaYznTatMF2cYEGhVUwUjri6IU3C7ITWbp6QXCpImF6YzgbCkcJ5HpgvUJ0VncKlJmTuU7VDqyuzLdM9O4EORaLcaIpa7yNoo75GqSwhuygpJEguzM1UDzSiLGOk9TDec1iKK+LyUf5lsf+tVcDzzNZ5z1961d/fUkr8UtPfAA==);strokeColor=#3c668c;points=[[0.5,0,0],[0.5,0.5,0],[0.5,0.5,0],[0.5,0.5,0],[1,0.5,0]];labelBackgroundColor=none;rounded=0;html=1;whiteSpace=wrap;" vertex="1" parent="QorwKqGtvu0XsbEE5Cfv-212">
          <mxGeometry x="-4" y="4" width="19" height="8" as="geometry" />
        </mxCell>
        <mxCell id="QorwKqGtvu0XsbEE5Cfv-215" style="vsdxID=278;rotation=60;fillColor=#003232;gradientColor=none;shape=stencil(vVHLDsIgEPwajiQU4hfU+h8bu7RELM2CFv9eyMZYjCcP3mZ2Zh/ZEaaPM6wotIqJwgU3N6ZZmKPQ2i0zkksFCTMI09tAOFG4LSPzFaqzomu41wmZ+1Tt0OrB7MD0xE6gc5EoN5qi1vsa1Kmvo1SWkF2UFBIkF5ZmqweaUJY10nqYGiluiOuu3P182P/OKuD9Zuu855T2+mcspcSRmuEJ);strokeColor=#3c668c;points=[[0.5,0,0],[0.5,0.5,0],[0.5,0.5,0],[0.5,0.5,0],[1,0.5,0],[0.15,0.85,0],[0.85,0.85,0],[0.85,0.15,0],[0.15,0.15,0]];labelBackgroundColor=none;rounded=0;html=1;whiteSpace=wrap;" vertex="1" parent="QorwKqGtvu0XsbEE5Cfv-212">
          <mxGeometry x="8" y="14" width="10" height="10" as="geometry" />
        </mxCell>
        <mxCell id="QorwKqGtvu0XsbEE5Cfv-216" value="" style="group" vertex="1" connectable="0" parent="1">
          <mxGeometry x="893" y="1461.0017696411974" width="139.0435842870421" height="112.01296706855135" as="geometry" />
        </mxCell>
        <mxCell id="QorwKqGtvu0XsbEE5Cfv-217" style="vsdxID=272;rotation=60;fillColor=#e51400;shape=stencil(lZPRcoMgEEW/hkeZZdERntPkP5gElamVDJrG/H2xUBQzk2ne2OWwFy67hB/GTl01QRgnZz/13VymjvAPgmiGTjsz+RXhR8IPjXW6dfY2XEJ8VQu5rL7s91JhDueAAi6HEB4hwQB+41OgzzcXcJZ4FvmYkZIyGVIzRigSMZSCchEJnhMxlDWt6peyuWYpqRS5JvPXYLkuA4os1y1LWuXSQKXcKit39rtuTlXrcDFw0SCskmURqqpUdFcT5kLNZiycndRk7JA9pleu1YXXK5petdnWeNf6ukmzV94IoELm/mxfjvm/Jne2HvI9899/WU+w57/G1CB/djzwuWf4SolcfdeKvRneaNz3aL9YJ6QxfR8GbLu/nyifCtPIjz8=);strokeColor=#B20000;strokeWidth=0;spacingTop=-3;spacingBottom=-3;spacingLeft=-3;spacingRight=-3;points=[];labelBackgroundColor=none;rounded=0;html=1;whiteSpace=wrap;fontColor=#ffffff;" vertex="1" parent="QorwKqGtvu0XsbEE5Cfv-216">
          <mxGeometry x="76" y="13.398230358802607" width="57.5" height="46" as="geometry" />
        </mxCell>
        <mxCell id="QorwKqGtvu0XsbEE5Cfv-218" style="vsdxID=273;rotation=60;fillColor=#e51400;shape=stencil(nZBRDoQgDERP03+WHsHFe5iISyOCQdT19kIaIxq//Jtp3zTpAFaTaUYNUkwx+F6v1EYD+AUpyRkdKCYFqACrzgf9C352LfuxyWRWg1/yhT/nRE5IsZWuZtCSK8CPeI0e/hF+jV7AJM4PO7KWCyr390bSiNtEtQM=);strokeColor=#B20000;strokeWidth=0;spacingTop=-3;spacingBottom=-3;spacingLeft=-3;spacingRight=-3;points=[];labelBackgroundColor=none;rounded=0;html=1;whiteSpace=wrap;fontColor=#ffffff;" vertex="1" parent="QorwKqGtvu0XsbEE5Cfv-216">
          <mxGeometry x="23" y="28.398230358802607" width="58" height="78" as="geometry" />
        </mxCell>
        <mxCell id="QorwKqGtvu0XsbEE5Cfv-219" style="vsdxID=274;rotation=60;fillColor=#ffcd28;gradientColor=#ffa500;shape=stencil(tZTbUsMgEIafhsswHJPmWut7MC1tGWPSIamNby+RhWSjrTqjd7B8sP8eWCIf+pM5WyJYP/ju2V7dfjgR+UiEcO3JejeEFZFbIh8OnbdH313afdyfzUROq5fudXphjPdqTXU13RLsLVrYx+4pwruLjzTP+KYEHEyMljxaRgFQSbkGCEyccvAyygwpBZBMUFktnRu/C6celGrKgfegNJhUehUerWmNgglIJQEpzOj6wneDGVzXLoNljfFHWwR/xaExR3TUX609L8z8Xno4Yzg5SlEtcXZmBgxlTdkqOTMj18xPPW/KnK9cl4rqzaou6VouSxBcY9+JAc+Naxf9E0rAUcZX9FqnoEpiobMEgRKfJC4DkZi4lRwskZGvO+JGl4nPXVZr1GUy1zTFTEX6Av/QZFggD79EYoV6ritAKgtCn/qv5N3ph2/mya/gsJjH1sE1TZx6y/P1mAumOCLl9h0=);strokeColor=#d79b00;strokeWidth=0;spacingTop=-3;spacingBottom=-3;spacingLeft=-3;spacingRight=-3;points=[];labelBackgroundColor=none;rounded=0;html=1;whiteSpace=wrap;" vertex="1" parent="QorwKqGtvu0XsbEE5Cfv-216">
          <mxGeometry x="49" y="48.39823035880261" width="21" height="30" as="geometry" />
        </mxCell>
        <mxCell id="QorwKqGtvu0XsbEE5Cfv-220" style="vsdxID=275;fillColor=none;gradientColor=none;strokeColor=none;strokeWidth=2;points=[];labelBackgroundColor=none;rounded=0;html=1;whiteSpace=wrap;" vertex="1" parent="QorwKqGtvu0XsbEE5Cfv-216">
          <mxGeometry y="69.3982303588026" width="26" height="39" as="geometry" />
        </mxCell>
        <mxCell id="QorwKqGtvu0XsbEE5Cfv-221" style="vsdxID=276;rotation=60;fillColor=#003232;gradientColor=none;shape=stencil(vVFBDgIhDHwNRxKE+IJ1/Ufjll0iLpuCLv5eSDWKevLgbaYznTatMF2cYEGhVUwUjri6IU3C7ITWbp6QXCpImF6YzgbCkcJ5HpgvUJ0VncKlJmTuU7VDqyuzLdM9O4EORaLcaIpa7yNoo75GqSwhuygpJEguzM1UDzSiLGOk9TDec1iKK+LyUf5lsf+tVcDzzNZ5z1961d/fUkr8UtPfAA==);strokeColor=#3c668c;points=[[0.5,0,0],[0.5,0.5,0],[0.5,0.5,0],[0.5,0.5,0],[1,0.5,0]];labelBackgroundColor=none;rounded=0;html=1;whiteSpace=wrap;" vertex="1" parent="QorwKqGtvu0XsbEE5Cfv-220">
          <mxGeometry x="10" y="27" width="19" height="8" as="geometry" />
        </mxCell>
        <mxCell id="QorwKqGtvu0XsbEE5Cfv-222" style="vsdxID=277;rotation=60;fillColor=#003232;gradientColor=none;shape=stencil(vVFBDgIhDHwNRxKE+IJ1/Ufjll0iLpuCLv5eSDWKevLgbaYznTatMF2cYEGhVUwUjri6IU3C7ITWbp6QXCpImF6YzgbCkcJ5HpgvUJ0VncKlJmTuU7VDqyuzLdM9O4EORaLcaIpa7yNoo75GqSwhuygpJEguzM1UDzSiLGOk9TDec1iKK+LyUf5lsf+tVcDzzNZ5z1961d/fUkr8UtPfAA==);strokeColor=#3c668c;points=[[0.5,0,0],[0.5,0.5,0],[0.5,0.5,0],[0.5,0.5,0],[1,0.5,0]];labelBackgroundColor=none;rounded=0;html=1;whiteSpace=wrap;" vertex="1" parent="QorwKqGtvu0XsbEE5Cfv-220">
          <mxGeometry x="-4" y="4" width="19" height="8" as="geometry" />
        </mxCell>
        <mxCell id="QorwKqGtvu0XsbEE5Cfv-223" style="vsdxID=278;rotation=60;fillColor=#003232;gradientColor=none;shape=stencil(vVHLDsIgEPwajiQU4hfU+h8bu7RELM2CFv9eyMZYjCcP3mZ2Zh/ZEaaPM6wotIqJwgU3N6ZZmKPQ2i0zkksFCTMI09tAOFG4LSPzFaqzomu41wmZ+1Tt0OrB7MD0xE6gc5EoN5qi1vsa1Kmvo1SWkF2UFBIkF5ZmqweaUJY10nqYGiluiOuu3P182P/OKuD9Zuu855T2+mcspcSRmuEJ);strokeColor=#3c668c;points=[[0.5,0,0],[0.5,0.5,0],[0.5,0.5,0],[0.5,0.5,0],[1,0.5,0],[0.15,0.85,0],[0.85,0.85,0],[0.85,0.15,0],[0.15,0.15,0]];labelBackgroundColor=none;rounded=0;html=1;whiteSpace=wrap;" vertex="1" parent="QorwKqGtvu0XsbEE5Cfv-220">
          <mxGeometry x="8" y="14" width="10" height="10" as="geometry" />
        </mxCell>
        <mxCell id="QorwKqGtvu0XsbEE5Cfv-224" value="" style="group" vertex="1" connectable="0" parent="1">
          <mxGeometry x="773.51" y="1711.0017696411974" width="139.0435842870421" height="112.01296706855135" as="geometry" />
        </mxCell>
        <mxCell id="QorwKqGtvu0XsbEE5Cfv-225" style="vsdxID=272;rotation=60;fillColor=#e51400;shape=stencil(lZPRcoMgEEW/hkeZZdERntPkP5gElamVDJrG/H2xUBQzk2ne2OWwFy67hB/GTl01QRgnZz/13VymjvAPgmiGTjsz+RXhR8IPjXW6dfY2XEJ8VQu5rL7s91JhDueAAi6HEB4hwQB+41OgzzcXcJZ4FvmYkZIyGVIzRigSMZSCchEJnhMxlDWt6peyuWYpqRS5JvPXYLkuA4os1y1LWuXSQKXcKit39rtuTlXrcDFw0SCskmURqqpUdFcT5kLNZiycndRk7JA9pleu1YXXK5petdnWeNf6ukmzV94IoELm/mxfjvm/Jne2HvI9899/WU+w57/G1CB/djzwuWf4SolcfdeKvRneaNz3aL9YJ6QxfR8GbLu/nyifCtPIjz8=);strokeColor=#B20000;strokeWidth=0;spacingTop=-3;spacingBottom=-3;spacingLeft=-3;spacingRight=-3;points=[];labelBackgroundColor=none;rounded=0;html=1;whiteSpace=wrap;fontColor=#ffffff;" vertex="1" parent="QorwKqGtvu0XsbEE5Cfv-224">
          <mxGeometry x="76" y="13.398230358802607" width="57.5" height="46" as="geometry" />
        </mxCell>
        <mxCell id="QorwKqGtvu0XsbEE5Cfv-226" style="vsdxID=273;rotation=60;fillColor=#e51400;shape=stencil(nZBRDoQgDERP03+WHsHFe5iISyOCQdT19kIaIxq//Jtp3zTpAFaTaUYNUkwx+F6v1EYD+AUpyRkdKCYFqACrzgf9C352LfuxyWRWg1/yhT/nRE5IsZWuZtCSK8CPeI0e/hF+jV7AJM4PO7KWCyr390bSiNtEtQM=);strokeColor=#B20000;strokeWidth=0;spacingTop=-3;spacingBottom=-3;spacingLeft=-3;spacingRight=-3;points=[];labelBackgroundColor=none;rounded=0;html=1;whiteSpace=wrap;fontColor=#ffffff;" vertex="1" parent="QorwKqGtvu0XsbEE5Cfv-224">
          <mxGeometry x="23" y="28.398230358802607" width="58" height="78" as="geometry" />
        </mxCell>
        <mxCell id="QorwKqGtvu0XsbEE5Cfv-227" style="vsdxID=274;rotation=60;fillColor=#ffcd28;gradientColor=#ffa500;shape=stencil(tZTbUsMgEIafhsswHJPmWut7MC1tGWPSIamNby+RhWSjrTqjd7B8sP8eWCIf+pM5WyJYP/ju2V7dfjgR+UiEcO3JejeEFZFbIh8OnbdH313afdyfzUROq5fudXphjPdqTXU13RLsLVrYx+4pwruLjzTP+KYEHEyMljxaRgFQSbkGCEyccvAyygwpBZBMUFktnRu/C6celGrKgfegNJhUehUerWmNgglIJQEpzOj6wneDGVzXLoNljfFHWwR/xaExR3TUX609L8z8Xno4Yzg5SlEtcXZmBgxlTdkqOTMj18xPPW/KnK9cl4rqzaou6VouSxBcY9+JAc+Naxf9E0rAUcZX9FqnoEpiobMEgRKfJC4DkZi4lRwskZGvO+JGl4nPXVZr1GUy1zTFTEX6Av/QZFggD79EYoV6ritAKgtCn/qv5N3ph2/mya/gsJjH1sE1TZx6y/P1mAumOCLl9h0=);strokeColor=#d79b00;strokeWidth=0;spacingTop=-3;spacingBottom=-3;spacingLeft=-3;spacingRight=-3;points=[];labelBackgroundColor=none;rounded=0;html=1;whiteSpace=wrap;" vertex="1" parent="QorwKqGtvu0XsbEE5Cfv-224">
          <mxGeometry x="49" y="48.39823035880261" width="21" height="30" as="geometry" />
        </mxCell>
        <mxCell id="QorwKqGtvu0XsbEE5Cfv-228" style="vsdxID=275;fillColor=none;gradientColor=none;strokeColor=none;strokeWidth=2;points=[];labelBackgroundColor=none;rounded=0;html=1;whiteSpace=wrap;" vertex="1" parent="QorwKqGtvu0XsbEE5Cfv-224">
          <mxGeometry y="69.3982303588026" width="26" height="39" as="geometry" />
        </mxCell>
        <mxCell id="QorwKqGtvu0XsbEE5Cfv-229" style="vsdxID=276;rotation=60;fillColor=#003232;gradientColor=none;shape=stencil(vVFBDgIhDHwNRxKE+IJ1/Ufjll0iLpuCLv5eSDWKevLgbaYznTatMF2cYEGhVUwUjri6IU3C7ITWbp6QXCpImF6YzgbCkcJ5HpgvUJ0VncKlJmTuU7VDqyuzLdM9O4EORaLcaIpa7yNoo75GqSwhuygpJEguzM1UDzSiLGOk9TDec1iKK+LyUf5lsf+tVcDzzNZ5z1961d/fUkr8UtPfAA==);strokeColor=#3c668c;points=[[0.5,0,0],[0.5,0.5,0],[0.5,0.5,0],[0.5,0.5,0],[1,0.5,0]];labelBackgroundColor=none;rounded=0;html=1;whiteSpace=wrap;" vertex="1" parent="QorwKqGtvu0XsbEE5Cfv-228">
          <mxGeometry x="10" y="27" width="19" height="8" as="geometry" />
        </mxCell>
        <mxCell id="QorwKqGtvu0XsbEE5Cfv-230" style="vsdxID=277;rotation=60;fillColor=#003232;gradientColor=none;shape=stencil(vVFBDgIhDHwNRxKE+IJ1/Ufjll0iLpuCLv5eSDWKevLgbaYznTatMF2cYEGhVUwUjri6IU3C7ITWbp6QXCpImF6YzgbCkcJ5HpgvUJ0VncKlJmTuU7VDqyuzLdM9O4EORaLcaIpa7yNoo75GqSwhuygpJEguzM1UDzSiLGOk9TDec1iKK+LyUf5lsf+tVcDzzNZ5z1961d/fUkr8UtPfAA==);strokeColor=#3c668c;points=[[0.5,0,0],[0.5,0.5,0],[0.5,0.5,0],[0.5,0.5,0],[1,0.5,0]];labelBackgroundColor=none;rounded=0;html=1;whiteSpace=wrap;" vertex="1" parent="QorwKqGtvu0XsbEE5Cfv-228">
          <mxGeometry x="-4" y="4" width="19" height="8" as="geometry" />
        </mxCell>
        <mxCell id="QorwKqGtvu0XsbEE5Cfv-231" style="vsdxID=278;rotation=60;fillColor=#003232;gradientColor=none;shape=stencil(vVHLDsIgEPwajiQU4hfU+h8bu7RELM2CFv9eyMZYjCcP3mZ2Zh/ZEaaPM6wotIqJwgU3N6ZZmKPQ2i0zkksFCTMI09tAOFG4LSPzFaqzomu41wmZ+1Tt0OrB7MD0xE6gc5EoN5qi1vsa1Kmvo1SWkF2UFBIkF5ZmqweaUJY10nqYGiluiOuu3P182P/OKuD9Zuu855T2+mcspcSRmuEJ);strokeColor=#3c668c;points=[[0.5,0,0],[0.5,0.5,0],[0.5,0.5,0],[0.5,0.5,0],[1,0.5,0],[0.15,0.85,0],[0.85,0.85,0],[0.85,0.15,0],[0.15,0.15,0]];labelBackgroundColor=none;rounded=0;html=1;whiteSpace=wrap;" vertex="1" parent="QorwKqGtvu0XsbEE5Cfv-228">
          <mxGeometry x="8" y="14" width="10" height="10" as="geometry" />
        </mxCell>
        <mxCell id="QorwKqGtvu0XsbEE5Cfv-232" value="\(Y_{B}\)" style="text;html=1;align=center;verticalAlign=middle;whiteSpace=wrap;rounded=0;fontSize=18;fontStyle=1" vertex="1" parent="1">
          <mxGeometry x="297" y="1932" width="41" height="20" as="geometry" />
        </mxCell>
        <mxCell id="QorwKqGtvu0XsbEE5Cfv-233" value="\(Y_{B}\)" style="text;html=1;align=center;verticalAlign=middle;whiteSpace=wrap;rounded=0;fontSize=18;fontStyle=1" vertex="1" parent="1">
          <mxGeometry x="912.55" y="1973.66" width="41" height="20" as="geometry" />
        </mxCell>
        <mxCell id="QorwKqGtvu0XsbEE5Cfv-234" value="\(X_{E}\)" style="text;html=1;align=center;verticalAlign=middle;whiteSpace=wrap;rounded=0;fontSize=18;fontStyle=1" vertex="1" parent="1">
          <mxGeometry x="855" y="1890" width="34" height="20" as="geometry" />
        </mxCell>
        <mxCell id="QorwKqGtvu0XsbEE5Cfv-235" value="\(X_{B}\)" style="text;html=1;align=center;verticalAlign=middle;whiteSpace=wrap;rounded=0;fontSize=18;fontStyle=1" vertex="1" parent="1">
          <mxGeometry x="711" y="1944" width="34" height="20" as="geometry" />
        </mxCell>
      </root>
    </mxGraphModel>
  </diagram>
</mxfile>
